<svg width="465" height="611" viewBox="0 0 465 611" fill="none" xmlns="http://www.w3.org/2000/svg">
<path d="M292.5 125.486L321.451 125.687C325.336 125.714 328.5 122.573 328.5 118.688V88.7363C328.5 84.8703 325.366 81.7363 321.5 81.7363H260.322C256.456 81.7363 253.322 78.6023 253.322 74.7363V50.2363M253.322 50.2363H282.741C283.547 50.2363 284.022 49.3327 283.565 48.6693L254.145 5.93287C253.748 5.35558 252.895 5.35558 252.498 5.93287L223.078 48.6693C222.622 49.3328 223.097 50.2363 223.902 50.2363H253.322Z" stroke="black" stroke-width="11" stroke-linecap="round"/>
<path d="M138.622 418.869C136.21 417.023 132.758 417.481 130.911 419.893C129.065 422.305 129.523 425.757 131.935 427.604L135.279 423.236L138.622 418.869ZM174.726 453.433L178.069 449.066L174.726 453.433ZM166.803 239.707L161.953 237.114L166.803 239.707ZM166.803 239.707L161.953 237.114L27.4 488.814L32.2505 491.407L37.1009 494L171.654 242.3L166.803 239.707ZM68.4083 551.736V557.236H174V551.736V546.236H68.4083V551.736ZM181 544.736H186.5V466.138H181H175.5V544.736H181ZM174.726 453.433L178.069 449.066L138.622 418.869L135.279 423.236L131.935 427.604L171.382 457.801L174.726 453.433ZM172 183.736H166.5V218.964H172H177.5V183.736H172ZM172 125.736H166.5V154.111H172H177.5V125.736H172ZM172 154.111H166.5V183.736H172H177.5V154.111H172ZM181 466.138H186.5C186.5 459.445 183.383 453.134 178.069 449.066L174.726 453.433L171.382 457.801C173.978 459.787 175.5 462.869 175.5 466.138H181ZM174 551.736V557.236C180.904 557.236 186.5 551.64 186.5 544.736H181H175.5C175.5 545.565 174.828 546.236 174 546.236V551.736ZM32.2505 491.407L27.4 488.814C10.8413 519.79 33.2847 557.236 68.4083 557.236V551.736V546.236C41.5935 546.236 24.4593 517.648 37.1009 494L32.2505 491.407ZM166.803 239.707L171.654 242.3C175.492 235.12 177.5 227.105 177.5 218.964H172H166.5C166.5 225.296 164.938 231.53 161.953 237.114L166.803 239.707Z" fill="black"/>
<path d="M318.484 436.757C320.82 434.815 324.288 435.135 326.23 437.471C328.171 439.807 327.852 443.274 325.516 445.216L322 440.986L318.484 436.757ZM289.273 468.188L285.757 463.958L289.273 468.188ZM297.697 239.457L302.547 236.864L297.697 239.457ZM297.697 239.457L302.547 236.864L437.1 488.564L432.25 491.157L427.399 493.75L292.846 242.05L297.697 239.457ZM396.092 551.486V556.986H290.5V551.486V545.986H396.092V551.486ZM283.5 544.486H278V480.493H283.5H289V544.486H283.5ZM289.273 468.188L285.757 463.958L318.484 436.757L322 440.986L325.516 445.216L292.788 472.418L289.273 468.188ZM292.5 183.486H298V218.714H292.5H287V183.486H292.5ZM292.5 153.861H298V183.486H292.5H287V153.861H292.5ZM292.5 125.486H298V139.674H292.5H287V125.486H292.5ZM292.5 139.674H298V153.861H292.5H287V139.674H292.5ZM283.5 480.493H278C278 474.102 280.843 468.043 285.757 463.958L289.273 468.188L292.788 472.418C290.388 474.413 289 477.372 289 480.493H283.5ZM290.5 551.486V556.986C283.596 556.986 278 551.39 278 544.486H283.5H289C289 545.315 289.672 545.986 290.5 545.986V551.486ZM432.25 491.157L437.1 488.564C453.659 519.54 431.215 556.986 396.092 556.986V551.486V545.986C422.907 545.986 440.041 517.398 427.399 493.75L432.25 491.157ZM297.697 239.457L292.846 242.05C289.008 234.87 287 226.855 287 218.714H292.5H298C298 225.046 299.562 231.28 302.547 236.864L297.697 239.457Z" fill="black"/>
<circle cx="232" cy="382.486" r="13.5" stroke="black" stroke-width="11"/>
<circle cx="187.5" cy="81.4863" r="13.5" stroke="black" stroke-width="11"/>
<circle cx="333.5" cy="429.486" r="13.5" stroke="black" stroke-width="11"/>
<circle cx="247.5" cy="258.486" r="13.5" stroke="black" stroke-width="11"/>
<circle cx="188.5" cy="312.486" r="13.5" stroke="black" stroke-width="11"/>
<circle cx="123.5" cy="414.486" r="13.5" stroke="black" stroke-width="11"/>
<path d="M283.5 479.486L283.991 372.684C283.997 371.41 283.655 370.158 283.002 369.064L247.989 310.394C247.342 309.309 247 308.069 247 306.806V270.736" stroke="black" stroke-width="11"/>
<path d="M172 131.236C175.038 131.236 177.5 128.774 177.5 125.736C177.5 122.699 175.038 120.236 172 120.236V125.736V131.236ZM172 125.736V120.236H138.5V125.736V131.236H172V125.736ZM131.5 118.736H137V88.7363H131.5H126V118.736H131.5ZM138.5 81.7363V87.2363H172V81.7363V76.2363H138.5V81.7363ZM131.5 88.7363H137C137 87.9079 137.672 87.2363 138.5 87.2363V81.7363V76.2363C131.596 76.2363 126 81.8328 126 88.7363H131.5ZM138.5 125.736V120.236C137.672 120.236 137 119.565 137 118.736H131.5H126C126 125.64 131.596 131.236 138.5 131.236V125.736Z" fill="black"/>
<path d="M242.5 552.769C242.5 555.807 244.962 558.269 248 558.269C251.038 558.269 253.5 555.807 253.5 552.769H248H242.5ZM248 552.769H253.5V415.309H248H242.5V552.769H248ZM247.176 412.014L252.028 409.424L242.468 391.509L237.616 394.099L232.764 396.688L242.323 414.603L247.176 412.014ZM216.376 568.736H221.876V434.542H216.376H210.876V568.736H216.376ZM215.297 430.808L219.949 427.874L194.731 387.886L190.079 390.82L185.427 393.754L210.645 433.742L215.297 430.808ZM189 387.086H194.5V327.736H189H183.5V387.086H189ZM190.079 390.82L194.731 387.886C194.58 387.647 194.5 387.369 194.5 387.086H189H183.5C183.5 389.446 184.168 391.758 185.427 393.754L190.079 390.82ZM216.376 434.542H221.876C221.876 432.182 221.208 429.87 219.949 427.874L215.297 430.808L210.645 433.742C210.796 433.981 210.876 434.259 210.876 434.542H216.376ZM248 415.309H253.5C253.5 413.256 252.994 411.235 252.028 409.424L247.176 412.014L242.323 414.603C242.439 414.82 242.5 415.063 242.5 415.309H248Z" fill="black"/>
<path d="M179 572.736H254M194.469 588.736H239M206.188 604.736H226.344" stroke="black" stroke-width="11" stroke-linecap="round"/>
</svg>
